<?xml version="1.0" encoding="utf-8"?>
<!-- Generator: Adobe Illustrator 27.8.1, SVG Export Plug-In . SVG Version: 6.00 Build 0)  -->
<svg version="1.1" id="Layer_1" xmlns="http://www.w3.org/2000/svg" xmlns:xlink="http://www.w3.org/1999/xlink" x="0px" y="0px"
	 viewBox="0 0 1000 500" style="enable-background:new 0 0 1000 500;" xml:space="preserve">
<style type="text/css">
	.st0{opacity:0.54;}
	.st1{fill:#1A1A1A;}
	.st2{fill:#29609D;}
	.st3{fill:#EC6228;}
	.st4{fill:#29629F;}
	.st5{fill:#FFFFFF;}
</style>
<g>
	<g>
		<g class="st0">
			<path class="st1" d="M182,335.2c-0.2,0-0.4-0.1-0.6-0.2c-0.2-0.1-0.2-0.3-0.2-0.6v-20.3h-6.6c-0.2,0-0.4-0.1-0.6-0.2
				c-0.2-0.1-0.2-0.3-0.2-0.6v-1.5c0-0.3,0.1-0.5,0.2-0.6c0.1-0.1,0.3-0.2,0.6-0.2h16.7c0.3,0,0.5,0.1,0.6,0.2
				c0.1,0.2,0.2,0.4,0.2,0.6v1.5c0,0.2-0.1,0.4-0.2,0.6c-0.2,0.2-0.4,0.2-0.6,0.2h-6.6v20.3c0,0.2-0.1,0.4-0.2,0.6
				c-0.2,0.2-0.4,0.2-0.6,0.2H182z"/>
			<path class="st1" d="M192.1,335.2c-0.2,0-0.4-0.1-0.6-0.2c-0.2-0.1-0.2-0.3-0.2-0.6v-16.4c0-0.2,0.1-0.4,0.2-0.6
				c0.1-0.2,0.3-0.2,0.6-0.2h1.6c0.2,0,0.4,0.1,0.6,0.2c0.2,0.2,0.2,0.4,0.2,0.6v1.5c0.5-0.8,1.1-1.4,1.9-1.8
				c0.8-0.4,1.8-0.6,2.9-0.6h1.4c0.2,0,0.4,0.1,0.6,0.2c0.1,0.2,0.2,0.3,0.2,0.6v1.4c0,0.2-0.1,0.4-0.2,0.6
				c-0.1,0.1-0.3,0.2-0.6,0.2h-2.1c-1.2,0-2.2,0.4-2.9,1.1c-0.7,0.7-1.1,1.7-1.1,3v10.2c0,0.2-0.1,0.4-0.2,0.6
				c-0.2,0.2-0.4,0.2-0.6,0.2H192.1z"/>
			<path class="st1" d="M207.8,335.6c-1.2,0-2.2-0.2-3.1-0.7c-0.9-0.5-1.7-1.1-2.3-1.9c-0.6-0.8-0.9-1.7-0.9-2.7
				c0-1.6,0.6-2.9,1.9-3.8c1.3-0.9,3-1.6,5-1.9l5.2-0.7v-1c0-1.1-0.3-2-1-2.6c-0.6-0.6-1.7-0.9-3.1-0.9c-1,0-1.9,0.2-2.5,0.6
				c-0.6,0.4-1.1,0.9-1.3,1.6c-0.1,0.3-0.4,0.5-0.7,0.5h-1.6c-0.3,0-0.4-0.1-0.6-0.2c-0.1-0.1-0.2-0.3-0.2-0.5
				c0-0.3,0.1-0.8,0.4-1.3c0.3-0.5,0.7-1,1.2-1.5c0.6-0.5,1.3-0.9,2.1-1.2c0.9-0.3,1.9-0.5,3.2-0.5c1.4,0,2.5,0.2,3.5,0.5
				c0.9,0.4,1.7,0.8,2.2,1.4c0.5,0.6,0.9,1.3,1.2,2c0.2,0.8,0.4,1.5,0.4,2.3v11.2c0,0.2-0.1,0.4-0.2,0.6c-0.2,0.2-0.3,0.2-0.6,0.2
				h-1.6c-0.3,0-0.4-0.1-0.6-0.2c-0.1-0.1-0.2-0.3-0.2-0.6V333c-0.3,0.4-0.7,0.8-1.2,1.2c-0.5,0.4-1.1,0.7-1.9,1
				C209.8,335.5,208.9,335.6,207.8,335.6z M208.5,333c0.9,0,1.8-0.2,2.6-0.6c0.8-0.4,1.4-1,1.8-1.9c0.4-0.9,0.7-1.9,0.7-3.2v-1
				l-4,0.6c-1.6,0.2-2.9,0.6-3.7,1.2c-0.8,0.5-1.2,1.2-1.2,2.1c0,0.6,0.2,1.2,0.6,1.6c0.4,0.4,0.9,0.7,1.5,1
				C207.3,332.9,207.9,333,208.5,333z"/>
			<path class="st1" d="M221.3,335.2c-0.2,0-0.4-0.1-0.6-0.2c-0.2-0.1-0.2-0.3-0.2-0.6v-16.4c0-0.2,0.1-0.4,0.2-0.6
				c0.1-0.1,0.3-0.2,0.6-0.2h1.6c0.2,0,0.4,0.1,0.6,0.2c0.1,0.2,0.2,0.3,0.2,0.6v1.5c0.6-0.8,1.4-1.4,2.3-1.9
				c0.9-0.5,2.1-0.7,3.5-0.7c1.5,0,2.8,0.3,3.8,1c1,0.7,1.8,1.6,2.4,2.7c0.5,1.2,0.8,2.5,0.8,4.1v9.7c0,0.2-0.1,0.4-0.2,0.6
				c-0.1,0.2-0.3,0.2-0.6,0.2H234c-0.2,0-0.4-0.1-0.6-0.2c-0.2-0.1-0.2-0.3-0.2-0.6v-9.6c0-1.6-0.4-2.9-1.2-3.8
				c-0.8-0.9-1.9-1.4-3.5-1.4c-1.4,0-2.6,0.5-3.4,1.4c-0.9,0.9-1.3,2.2-1.3,3.8v9.6c0,0.2-0.1,0.4-0.2,0.6c-0.2,0.2-0.3,0.2-0.6,0.2
				H221.3z"/>
			<path class="st1" d="M246.3,335.6c-1.3,0-2.4-0.2-3.3-0.5c-0.9-0.3-1.7-0.7-2.2-1.2c-0.6-0.5-1-0.9-1.3-1.4
				c-0.3-0.5-0.4-0.8-0.5-1.1c0-0.3,0.1-0.4,0.2-0.6c0.2-0.1,0.4-0.2,0.6-0.2h1.5c0.1,0,0.2,0,0.3,0.1c0.1,0,0.2,0.1,0.3,0.3
				c0.3,0.3,0.6,0.6,1,1c0.4,0.3,0.8,0.6,1.4,0.8c0.5,0.2,1.2,0.3,2,0.3c1.2,0,2.1-0.2,2.9-0.7c0.8-0.4,1.1-1.1,1.1-2
				c0-0.6-0.2-1-0.5-1.4c-0.3-0.3-0.9-0.7-1.7-0.9c-0.8-0.3-1.9-0.6-3.3-0.9c-1.4-0.3-2.5-0.7-3.3-1.2c-0.8-0.5-1.4-1-1.7-1.7
				c-0.3-0.7-0.5-1.4-0.5-2.2c0-0.9,0.3-1.7,0.8-2.5c0.5-0.8,1.2-1.4,2.2-2c1-0.5,2.2-0.8,3.7-0.8c1.2,0,2.2,0.2,3.1,0.4
				c0.9,0.3,1.6,0.7,2.1,1.1c0.6,0.4,1,0.9,1.2,1.3c0.3,0.4,0.4,0.8,0.4,1.1c0,0.2,0,0.4-0.2,0.6c-0.2,0.2-0.3,0.2-0.6,0.2h-1.5
				c-0.2,0-0.3,0-0.4-0.1c-0.1-0.1-0.2-0.1-0.3-0.2c-0.2-0.3-0.5-0.6-0.8-0.9c-0.3-0.3-0.7-0.5-1.2-0.7c-0.5-0.2-1.1-0.3-2-0.3
				c-1.2,0-2,0.2-2.6,0.7c-0.6,0.5-0.9,1.1-0.9,1.8c0,0.4,0.1,0.8,0.4,1.2c0.3,0.3,0.7,0.7,1.5,0.9c0.7,0.3,1.8,0.6,3.2,0.9
				c1.5,0.3,2.7,0.7,3.6,1.2c0.9,0.5,1.5,1.1,1.9,1.8c0.4,0.7,0.6,1.4,0.6,2.3c0,1-0.3,1.9-0.8,2.7c-0.6,0.8-1.4,1.4-2.5,1.9
				C249.2,335.4,247.9,335.6,246.3,335.6z"/>
			<path class="st1" d="M258.8,335.2c-0.2,0-0.4-0.1-0.6-0.2c-0.2-0.1-0.2-0.3-0.2-0.6V320h-2.9c-0.2,0-0.4-0.1-0.6-0.2
				c-0.2-0.1-0.2-0.3-0.2-0.6v-1.2c0-0.2,0.1-0.4,0.2-0.6c0.1-0.1,0.3-0.2,0.6-0.2h2.9v-1.7c0-1.2,0.2-2.2,0.6-3.1
				c0.4-0.9,1-1.6,1.9-2.1c0.9-0.5,2-0.7,3.5-0.7h2.1c0.2,0,0.4,0.1,0.6,0.2c0.1,0.2,0.2,0.3,0.2,0.6v1.2c0,0.2-0.1,0.4-0.2,0.6
				c-0.1,0.2-0.3,0.2-0.6,0.2h-2c-1.1,0-1.8,0.3-2.2,0.8c-0.4,0.6-0.6,1.4-0.6,2.4v1.6h4.5c0.2,0,0.4,0.1,0.6,0.2
				c0.1,0.2,0.2,0.3,0.2,0.6v1.2c0,0.2-0.1,0.4-0.2,0.6c-0.1,0.2-0.3,0.2-0.6,0.2h-4.5v14.4c0,0.2-0.1,0.4-0.2,0.6
				c-0.2,0.2-0.3,0.2-0.6,0.2H258.8z"/>
			<path class="st1" d="M275,335.6c-2.4,0-4.3-0.7-5.7-2.2c-1.4-1.5-2.2-3.5-2.3-6c0-0.3,0-0.7,0-1.2c0-0.5,0-0.9,0-1.2
				c0.1-1.6,0.5-3.1,1.1-4.3c0.7-1.2,1.6-2.2,2.7-2.9c1.2-0.7,2.5-1,4.1-1c1.8,0,3.2,0.4,4.4,1.1c1.2,0.7,2.1,1.8,2.7,3.1
				c0.6,1.4,0.9,3,0.9,4.8v0.6c0,0.3-0.1,0.4-0.2,0.6c-0.2,0.1-0.3,0.2-0.6,0.2h-12c0,0,0,0.1,0,0.1c0,0.1,0,0.1,0,0.2
				c0,0.9,0.3,1.8,0.6,2.6c0.4,0.8,0.9,1.5,1.6,2c0.7,0.5,1.5,0.8,2.5,0.8c0.8,0,1.5-0.1,2.1-0.4c0.6-0.3,1-0.5,1.3-0.8
				c0.3-0.3,0.6-0.5,0.7-0.7c0.2-0.3,0.4-0.5,0.5-0.5c0.1-0.1,0.3-0.1,0.6-0.1h1.7c0.2,0,0.4,0.1,0.6,0.2c0.1,0.1,0.2,0.3,0.2,0.5
				c0,0.3-0.2,0.8-0.6,1.3c-0.3,0.5-0.8,1-1.5,1.5c-0.6,0.5-1.4,0.9-2.4,1.2C277.2,335.4,276.2,335.6,275,335.6z M270.3,324.9h9.5
				v-0.1c0-1-0.2-2-0.6-2.8c-0.4-0.8-0.9-1.4-1.6-1.9c-0.7-0.5-1.6-0.7-2.6-0.7c-1,0-1.8,0.2-2.5,0.7c-0.7,0.5-1.2,1.1-1.6,1.9
				c-0.4,0.8-0.6,1.7-0.6,2.8V324.9z"/>
			<path class="st1" d="M286.6,335.2c-0.2,0-0.4-0.1-0.6-0.2c-0.2-0.1-0.2-0.3-0.2-0.6v-16.4c0-0.2,0.1-0.4,0.2-0.6
				c0.1-0.2,0.3-0.2,0.6-0.2h1.6c0.2,0,0.4,0.1,0.6,0.2c0.2,0.2,0.2,0.4,0.2,0.6v1.5c0.5-0.8,1.1-1.4,1.9-1.8
				c0.8-0.4,1.8-0.6,2.9-0.6h1.4c0.2,0,0.4,0.1,0.6,0.2c0.1,0.2,0.2,0.3,0.2,0.6v1.4c0,0.2-0.1,0.4-0.2,0.6
				c-0.1,0.1-0.3,0.2-0.6,0.2h-2.1c-1.2,0-2.2,0.4-2.9,1.1c-0.7,0.7-1.1,1.7-1.1,3v10.2c0,0.2-0.1,0.4-0.2,0.6
				c-0.2,0.2-0.4,0.2-0.6,0.2H286.6z"/>
			<path class="st1" d="M298.4,335.2c-0.2,0-0.4-0.1-0.6-0.2c-0.2-0.1-0.2-0.3-0.2-0.6v-16.4c0-0.2,0.1-0.4,0.2-0.6
				c0.1-0.2,0.3-0.2,0.6-0.2h1.6c0.2,0,0.4,0.1,0.6,0.2c0.2,0.2,0.2,0.4,0.2,0.6v1.5c0.5-0.8,1.1-1.4,1.9-1.8
				c0.8-0.4,1.8-0.6,2.9-0.6h1.4c0.2,0,0.4,0.1,0.6,0.2c0.1,0.2,0.2,0.3,0.2,0.6v1.4c0,0.2-0.1,0.4-0.2,0.6
				c-0.1,0.1-0.3,0.2-0.6,0.2h-2.1c-1.2,0-2.2,0.4-2.9,1.1c-0.7,0.7-1.1,1.7-1.1,3v10.2c0,0.2-0.1,0.4-0.2,0.6
				c-0.2,0.2-0.4,0.2-0.6,0.2H298.4z"/>
			<path class="st1" d="M309.8,313.9c-0.2,0-0.4-0.1-0.6-0.2c-0.2-0.1-0.2-0.3-0.2-0.6v-1.9c0-0.2,0.1-0.4,0.2-0.6
				c0.1-0.1,0.3-0.2,0.6-0.2h2.2c0.2,0,0.4,0.1,0.6,0.2c0.1,0.2,0.2,0.3,0.2,0.6v1.9c0,0.2-0.1,0.4-0.2,0.6
				c-0.2,0.2-0.3,0.2-0.6,0.2H309.8z M310.1,335.2c-0.2,0-0.4-0.1-0.6-0.2c-0.2-0.1-0.2-0.3-0.2-0.6v-16.4c0-0.2,0.1-0.4,0.2-0.6
				c0.1-0.1,0.3-0.2,0.6-0.2h1.7c0.2,0,0.4,0.1,0.6,0.2c0.1,0.2,0.2,0.3,0.2,0.6v16.4c0,0.2-0.1,0.4-0.2,0.6
				c-0.1,0.2-0.3,0.2-0.6,0.2H310.1z"/>
			<path class="st1" d="M317.4,335.2c-0.2,0-0.4-0.1-0.6-0.2c-0.2-0.1-0.2-0.3-0.2-0.6v-16.4c0-0.2,0.1-0.4,0.2-0.6
				c0.1-0.1,0.3-0.2,0.6-0.2h1.6c0.2,0,0.4,0.1,0.6,0.2c0.1,0.2,0.2,0.3,0.2,0.6v1.5c0.6-0.8,1.4-1.4,2.3-1.9
				c0.9-0.5,2.1-0.7,3.5-0.7c1.5,0,2.8,0.3,3.8,1c1,0.7,1.8,1.6,2.4,2.7c0.5,1.2,0.8,2.5,0.8,4.1v9.7c0,0.2-0.1,0.4-0.2,0.6
				c-0.1,0.2-0.3,0.2-0.6,0.2h-1.7c-0.2,0-0.4-0.1-0.6-0.2c-0.2-0.1-0.2-0.3-0.2-0.6v-9.6c0-1.6-0.4-2.9-1.2-3.8
				c-0.8-0.9-1.9-1.4-3.5-1.4c-1.4,0-2.6,0.5-3.4,1.4c-0.9,0.9-1.3,2.2-1.3,3.8v9.6c0,0.2-0.1,0.4-0.2,0.6c-0.2,0.2-0.3,0.2-0.6,0.2
				H317.4z"/>
			<path class="st1" d="M343.5,342.9c-1.6,0-2.9-0.2-3.9-0.6c-1-0.4-1.8-0.9-2.4-1.5c-0.6-0.6-1-1.2-1.2-1.8
				c-0.2-0.6-0.4-1.1-0.4-1.4c0-0.2,0.1-0.4,0.2-0.6c0.2-0.2,0.4-0.2,0.6-0.2h1.7c0.2,0,0.4,0,0.5,0.1c0.1,0.1,0.3,0.3,0.3,0.6
				c0.1,0.3,0.3,0.7,0.6,1.2c0.3,0.4,0.7,0.8,1.3,1.1c0.6,0.3,1.4,0.5,2.4,0.5c1.1,0,2-0.1,2.7-0.4c0.7-0.3,1.3-0.8,1.7-1.5
				c0.4-0.7,0.6-1.7,0.6-3v-2.4c-0.6,0.7-1.3,1.3-2.2,1.8c-0.9,0.5-2,0.7-3.4,0.7c-1.3,0-2.4-0.2-3.3-0.7c-0.9-0.4-1.7-1.1-2.3-1.8
				c-0.6-0.8-1-1.7-1.3-2.6c-0.3-1-0.5-2-0.5-3.1c0-0.6,0-1.3,0-1.9c0-1.1,0.2-2.1,0.5-3.1c0.3-1,0.7-1.9,1.3-2.7
				c0.6-0.8,1.3-1.4,2.3-1.8c0.9-0.4,2-0.7,3.3-0.7c1.4,0,2.5,0.3,3.4,0.8c0.9,0.5,1.7,1.1,2.2,1.9v-1.5c0-0.2,0.1-0.4,0.2-0.6
				c0.1-0.2,0.3-0.2,0.6-0.2h1.6c0.2,0,0.4,0.1,0.6,0.2c0.2,0.2,0.2,0.4,0.2,0.6v16.8c0,1.5-0.3,2.9-0.8,4.1
				c-0.5,1.2-1.4,2.1-2.6,2.8C347.1,342.5,345.5,342.9,343.5,342.9z M343.5,332.6c1.2,0,2.1-0.3,2.8-0.8c0.7-0.5,1.2-1.2,1.6-2
				c0.3-0.8,0.5-1.6,0.5-2.5c0-0.3,0-0.7,0-1.2c0-0.5,0-0.9,0-1.2c0-0.8-0.2-1.6-0.5-2.5c-0.3-0.8-0.9-1.5-1.6-2
				c-0.7-0.5-1.6-0.8-2.8-0.8c-1.2,0-2.1,0.3-2.8,0.8c-0.7,0.5-1.2,1.2-1.5,2c-0.3,0.8-0.5,1.7-0.5,2.7c0,0.6,0,1.2,0,1.8
				c0,1,0.2,1.9,0.5,2.7c0.3,0.8,0.8,1.5,1.5,2C341.4,332.4,342.3,332.6,343.5,332.6z"/>
			<path class="st1" d="M363.8,335.2c-0.3,0-0.4-0.1-0.6-0.2c-0.1-0.1-0.2-0.3-0.2-0.6v-22.6c0-0.3,0.1-0.5,0.2-0.6
				c0.1-0.1,0.3-0.2,0.6-0.2H378c0.3,0,0.4,0.1,0.6,0.2c0.1,0.2,0.2,0.4,0.2,0.6v1.3c0,0.3-0.1,0.4-0.2,0.6
				c-0.1,0.1-0.3,0.2-0.6,0.2h-11.8v7.6h11c0.3,0,0.4,0.1,0.6,0.2c0.1,0.2,0.2,0.4,0.2,0.6v1.3c0,0.2-0.1,0.4-0.2,0.6
				c-0.1,0.2-0.3,0.2-0.6,0.2h-11v7.8h12c0.3,0,0.4,0.1,0.6,0.2c0.1,0.1,0.2,0.3,0.2,0.6v1.3c0,0.2-0.1,0.4-0.2,0.6
				c-0.1,0.2-0.3,0.2-0.6,0.2H363.8z"/>
			<path class="st1" d="M381.2,335.2c-0.2,0-0.4-0.1-0.5-0.2c-0.2-0.1-0.2-0.3-0.2-0.5c0-0.1,0-0.2,0.1-0.3c0-0.1,0.1-0.2,0.2-0.4
				l6-7.8l-5.6-7.4c-0.1-0.1-0.2-0.3-0.2-0.3c0-0.1-0.1-0.2-0.1-0.3c0-0.2,0.1-0.4,0.2-0.5c0.1-0.1,0.3-0.2,0.5-0.2h1.8
				c0.3,0,0.4,0.1,0.6,0.2c0.1,0.1,0.2,0.2,0.3,0.4l4.6,6l4.6-5.9c0.1-0.1,0.2-0.2,0.3-0.4c0.1-0.1,0.3-0.2,0.6-0.2h1.7
				c0.2,0,0.4,0.1,0.5,0.2c0.1,0.1,0.2,0.3,0.2,0.5c0,0.1,0,0.2-0.1,0.3c0,0.1-0.1,0.2-0.2,0.3l-5.7,7.5l6,7.8
				c0.1,0.1,0.2,0.3,0.2,0.3c0,0.1,0.1,0.2,0.1,0.3c0,0.2-0.1,0.4-0.2,0.5c-0.1,0.1-0.3,0.2-0.5,0.2h-1.8c-0.2,0-0.4-0.1-0.6-0.2
				c-0.1-0.1-0.3-0.2-0.3-0.3l-4.9-6.3l-4.9,6.3c-0.1,0.1-0.2,0.2-0.3,0.3c-0.1,0.1-0.3,0.2-0.6,0.2H381.2z"/>
			<path class="st1" d="M400.2,341.8c-0.2,0-0.4-0.1-0.6-0.2c-0.2-0.2-0.2-0.3-0.2-0.6v-23c0-0.2,0.1-0.4,0.2-0.6
				c0.1-0.1,0.3-0.2,0.6-0.2h1.6c0.2,0,0.4,0.1,0.6,0.2c0.1,0.2,0.2,0.3,0.2,0.6v1.5c0.6-0.8,1.3-1.4,2.2-1.9
				c0.9-0.5,2.1-0.8,3.5-0.8c1.3,0,2.4,0.2,3.3,0.7c0.9,0.4,1.7,1,2.2,1.8c0.6,0.8,1,1.6,1.3,2.6c0.3,1,0.5,2,0.5,3.1
				c0,0.4,0,0.8,0,1.2s0,0.8,0,1.2c0,1.1-0.2,2.1-0.5,3.1c-0.3,1-0.7,1.8-1.3,2.6c-0.6,0.7-1.3,1.3-2.2,1.8c-0.9,0.4-2,0.7-3.3,0.7
				c-1.3,0-2.5-0.2-3.4-0.7c-0.9-0.5-1.7-1.1-2.2-1.8v8c0,0.2-0.1,0.4-0.2,0.6c-0.1,0.1-0.3,0.2-0.6,0.2H400.2z M407.5,332.8
				c1.2,0,2.1-0.3,2.8-0.8c0.7-0.5,1.2-1.2,1.5-2c0.3-0.8,0.5-1.7,0.5-2.7c0-0.7,0-1.3,0-2c0-1-0.2-1.9-0.5-2.7
				c-0.3-0.8-0.8-1.5-1.5-2c-0.7-0.5-1.6-0.8-2.8-0.8c-1.1,0-2,0.3-2.7,0.8c-0.7,0.5-1.2,1.2-1.6,2c-0.3,0.8-0.5,1.7-0.6,2.5
				c0,0.4,0,0.8,0,1.3c0,0.5,0,1,0,1.3c0,0.8,0.2,1.6,0.6,2.4c0.4,0.8,0.9,1.4,1.6,1.9C405.5,332.5,406.4,332.8,407.5,332.8z"/>
			<path class="st1" d="M425.7,335.6c-2.4,0-4.3-0.7-5.7-2.2c-1.4-1.5-2.2-3.5-2.3-6c0-0.3,0-0.7,0-1.2c0-0.5,0-0.9,0-1.2
				c0.1-1.6,0.5-3.1,1.1-4.3c0.7-1.2,1.6-2.2,2.7-2.9c1.2-0.7,2.5-1,4.1-1c1.8,0,3.2,0.4,4.4,1.1c1.2,0.7,2.1,1.8,2.7,3.1
				c0.6,1.4,0.9,3,0.9,4.8v0.6c0,0.3-0.1,0.4-0.2,0.6c-0.2,0.1-0.3,0.2-0.6,0.2h-12c0,0,0,0.1,0,0.1c0,0.1,0,0.1,0,0.2
				c0,0.9,0.3,1.8,0.6,2.6c0.4,0.8,0.9,1.5,1.6,2c0.7,0.5,1.5,0.8,2.5,0.8c0.8,0,1.5-0.1,2.1-0.4c0.6-0.3,1-0.5,1.3-0.8
				c0.3-0.3,0.6-0.5,0.7-0.7c0.2-0.3,0.4-0.5,0.5-0.5c0.1-0.1,0.3-0.1,0.6-0.1h1.7c0.2,0,0.4,0.1,0.6,0.2c0.1,0.1,0.2,0.3,0.2,0.5
				c0,0.3-0.2,0.8-0.6,1.3c-0.3,0.5-0.8,1-1.5,1.5c-0.6,0.5-1.4,0.9-2.4,1.2C428,335.4,426.9,335.6,425.7,335.6z M421,324.9h9.5
				v-0.1c0-1-0.2-2-0.6-2.8c-0.4-0.8-0.9-1.4-1.6-1.9c-0.7-0.5-1.6-0.7-2.6-0.7c-1,0-1.8,0.2-2.5,0.7c-0.7,0.5-1.2,1.1-1.6,1.9
				c-0.4,0.8-0.6,1.7-0.6,2.8V324.9z"/>
			<path class="st1" d="M437.3,335.2c-0.2,0-0.4-0.1-0.6-0.2c-0.2-0.1-0.2-0.3-0.2-0.6v-16.4c0-0.2,0.1-0.4,0.2-0.6
				c0.1-0.2,0.3-0.2,0.6-0.2h1.6c0.2,0,0.4,0.1,0.6,0.2c0.2,0.2,0.2,0.4,0.2,0.6v1.5c0.5-0.8,1.1-1.4,1.9-1.8
				c0.8-0.4,1.8-0.6,2.9-0.6h1.4c0.2,0,0.4,0.1,0.6,0.2c0.1,0.2,0.2,0.3,0.2,0.6v1.4c0,0.2-0.1,0.4-0.2,0.6
				c-0.1,0.1-0.3,0.2-0.6,0.2h-2.1c-1.2,0-2.2,0.4-2.9,1.1c-0.7,0.7-1.1,1.7-1.1,3v10.2c0,0.2-0.1,0.4-0.2,0.6
				c-0.2,0.2-0.4,0.2-0.6,0.2H437.3z"/>
			<path class="st1" d="M455.3,335.2c-1.3,0-2.3-0.2-3.1-0.7c-0.8-0.5-1.4-1.2-1.8-2.1c-0.4-0.9-0.6-2-0.6-3.2V320h-2.7
				c-0.2,0-0.4-0.1-0.6-0.2c-0.2-0.1-0.2-0.3-0.2-0.6v-1.2c0-0.2,0.1-0.4,0.2-0.6c0.1-0.1,0.3-0.2,0.6-0.2h2.7v-5.8
				c0-0.2,0.1-0.4,0.2-0.6c0.1-0.1,0.3-0.2,0.6-0.2h1.6c0.2,0,0.4,0.1,0.6,0.2c0.1,0.2,0.2,0.3,0.2,0.6v5.8h4.3
				c0.2,0,0.4,0.1,0.6,0.2c0.1,0.2,0.2,0.3,0.2,0.6v1.2c0,0.2-0.1,0.4-0.2,0.6c-0.2,0.2-0.3,0.2-0.6,0.2H453v8.9
				c0,1.1,0.2,1.9,0.6,2.6c0.4,0.6,1,0.9,2,0.9h2.1c0.2,0,0.4,0.1,0.6,0.2c0.1,0.2,0.2,0.3,0.2,0.6v1.2c0,0.2-0.1,0.4-0.2,0.6
				c-0.2,0.2-0.3,0.2-0.6,0.2H455.3z"/>
			<path class="st1" d="M466.6,335.6c-1.3,0-2.4-0.2-3.3-0.5c-0.9-0.3-1.7-0.7-2.2-1.2c-0.6-0.5-1-0.9-1.3-1.4
				c-0.3-0.5-0.4-0.8-0.5-1.1c0-0.3,0.1-0.4,0.2-0.6c0.2-0.1,0.4-0.2,0.6-0.2h1.5c0.1,0,0.2,0,0.3,0.1c0.1,0,0.2,0.1,0.3,0.3
				c0.3,0.3,0.6,0.6,1,1c0.4,0.3,0.8,0.6,1.4,0.8c0.5,0.2,1.2,0.3,2,0.3c1.2,0,2.1-0.2,2.9-0.7c0.8-0.4,1.1-1.1,1.1-2
				c0-0.6-0.2-1-0.5-1.4c-0.3-0.3-0.9-0.7-1.7-0.9c-0.8-0.3-1.9-0.6-3.3-0.9c-1.4-0.3-2.5-0.7-3.3-1.2c-0.8-0.5-1.4-1-1.7-1.7
				c-0.3-0.7-0.5-1.4-0.5-2.2c0-0.9,0.3-1.7,0.8-2.5c0.5-0.8,1.2-1.4,2.2-2c1-0.5,2.2-0.8,3.7-0.8c1.2,0,2.2,0.2,3.1,0.4
				c0.9,0.3,1.6,0.7,2.1,1.1c0.6,0.4,1,0.9,1.2,1.3c0.3,0.4,0.4,0.8,0.4,1.1c0,0.2,0,0.4-0.2,0.6c-0.2,0.2-0.3,0.2-0.6,0.2h-1.5
				c-0.2,0-0.3,0-0.4-0.1c-0.1-0.1-0.2-0.1-0.3-0.2c-0.2-0.3-0.5-0.6-0.8-0.9c-0.3-0.3-0.7-0.5-1.2-0.7c-0.5-0.2-1.1-0.3-2-0.3
				c-1.2,0-2,0.2-2.6,0.7c-0.6,0.5-0.9,1.1-0.9,1.8c0,0.4,0.1,0.8,0.4,1.2c0.3,0.3,0.7,0.7,1.5,0.9c0.7,0.3,1.8,0.6,3.2,0.9
				c1.5,0.3,2.7,0.7,3.6,1.2c0.9,0.5,1.5,1.1,1.9,1.8c0.4,0.7,0.6,1.4,0.6,2.3c0,1-0.3,1.9-0.8,2.7c-0.6,0.8-1.4,1.4-2.5,1.9
				C469.6,335.4,468.2,335.6,466.6,335.6z"/>
			<path class="st1" d="M485,335.2c-0.3,0-0.4-0.1-0.6-0.2c-0.1-0.1-0.2-0.3-0.2-0.6v-22.6c0-0.3,0.1-0.5,0.2-0.6
				c0.1-0.1,0.3-0.2,0.6-0.2h1.7c0.3,0,0.5,0.1,0.6,0.2c0.1,0.2,0.2,0.4,0.2,0.6v8.6l9.2-8.8c0.1-0.1,0.2-0.2,0.5-0.3
				c0.2-0.1,0.5-0.2,0.9-0.2h1.9c0.2,0,0.3,0.1,0.5,0.2c0.1,0.1,0.2,0.3,0.2,0.5c0,0.2,0,0.3-0.1,0.4l-10.7,10.4l11.4,11.4
				c0.1,0.1,0.2,0.3,0.2,0.5c0,0.2-0.1,0.3-0.2,0.5c-0.1,0.1-0.3,0.2-0.5,0.2h-1.9c-0.4,0-0.7-0.1-0.9-0.2c-0.2-0.1-0.4-0.3-0.4-0.3
				l-9.9-9.7v9.5c0,0.2-0.1,0.4-0.2,0.6c-0.2,0.2-0.4,0.2-0.6,0.2H485z"/>
			<path class="st1" d="M503.9,335.2c-0.2,0-0.4-0.1-0.6-0.2c-0.2-0.1-0.2-0.3-0.2-0.6v-16.4c0-0.2,0.1-0.4,0.2-0.6
				c0.1-0.1,0.3-0.2,0.6-0.2h1.6c0.2,0,0.4,0.1,0.6,0.2c0.1,0.2,0.2,0.3,0.2,0.6v1.5c0.6-0.8,1.4-1.4,2.3-1.9
				c0.9-0.5,2.1-0.7,3.5-0.7c1.5,0,2.8,0.3,3.8,1c1,0.7,1.8,1.6,2.4,2.7c0.5,1.2,0.8,2.5,0.8,4.1v9.7c0,0.2-0.1,0.4-0.2,0.6
				c-0.1,0.2-0.3,0.2-0.6,0.2h-1.7c-0.2,0-0.4-0.1-0.6-0.2c-0.2-0.1-0.2-0.3-0.2-0.6v-9.6c0-1.6-0.4-2.9-1.2-3.8
				c-0.8-0.9-1.9-1.4-3.5-1.4c-1.4,0-2.6,0.5-3.4,1.4c-0.9,0.9-1.3,2.2-1.3,3.8v9.6c0,0.2-0.1,0.4-0.2,0.6c-0.2,0.2-0.3,0.2-0.6,0.2
				H503.9z"/>
			<path class="st1" d="M530.1,335.6c-1.8,0-3.2-0.3-4.4-1s-2.1-1.6-2.7-2.8c-0.6-1.2-1-2.5-1-4.1c0-0.4,0-0.9,0-1.5
				c0-0.6,0-1.1,0-1.5c0.1-1.5,0.4-2.9,1.1-4.1c0.6-1.2,1.5-2.1,2.7-2.8c1.2-0.7,2.6-1,4.4-1s3.2,0.3,4.4,1c1.2,0.7,2.1,1.6,2.7,2.8
				c0.6,1.2,1,2.5,1.1,4.1c0,0.4,0,0.9,0,1.5c0,0.6,0,1.1,0,1.5c-0.1,1.5-0.4,2.9-1,4.1c-0.6,1.2-1.5,2.1-2.7,2.8
				C533.3,335.3,531.8,335.6,530.1,335.6z M530.1,332.9c1.4,0,2.6-0.5,3.4-1.4c0.9-0.9,1.3-2.2,1.4-4c0-0.3,0-0.8,0-1.3
				c0-0.5,0-1,0-1.3c-0.1-1.8-0.5-3.1-1.4-4c-0.9-0.9-2-1.4-3.4-1.4c-1.4,0-2.6,0.5-3.4,1.4c-0.9,0.9-1.3,2.2-1.4,4
				c0,0.3,0,0.8,0,1.3c0,0.5,0,1,0,1.3c0,1.8,0.5,3.1,1.4,4C527.5,332.5,528.6,332.9,530.1,332.9z"/>
			<path class="st1" d="M545.4,335.2c-0.3,0-0.5-0.1-0.7-0.2c-0.2-0.1-0.3-0.4-0.4-0.6l-4.9-16c0-0.1-0.1-0.2-0.1-0.3
				c0-0.2,0.1-0.4,0.2-0.5c0.1-0.1,0.3-0.2,0.5-0.2h1.5c0.3,0,0.4,0.1,0.6,0.2c0.1,0.1,0.2,0.3,0.3,0.4l3.8,13l4.1-12.9
				c0-0.2,0.1-0.3,0.3-0.5c0.1-0.2,0.4-0.2,0.7-0.2h1.2c0.3,0,0.5,0.1,0.7,0.2c0.2,0.2,0.3,0.3,0.3,0.5l4.1,12.9l3.8-13
				c0-0.1,0.1-0.2,0.2-0.4c0.1-0.1,0.3-0.2,0.6-0.2h1.5c0.2,0,0.4,0.1,0.5,0.2c0.1,0.1,0.2,0.3,0.2,0.5c0,0.1,0,0.2-0.1,0.3l-4.9,16
				c-0.1,0.3-0.2,0.5-0.4,0.6c-0.2,0.2-0.4,0.2-0.7,0.2h-1.3c-0.3,0-0.5-0.1-0.7-0.2c-0.2-0.1-0.3-0.4-0.4-0.6l-4-12.4l-4,12.4
				c-0.1,0.3-0.2,0.5-0.4,0.6c-0.2,0.2-0.4,0.2-0.8,0.2H545.4z"/>
			<path class="st1" d="M567.8,335.2c-0.2,0-0.4-0.1-0.6-0.2c-0.2-0.1-0.2-0.3-0.2-0.6v-23c0-0.2,0.1-0.4,0.2-0.6
				c0.1-0.1,0.3-0.2,0.6-0.2h1.6c0.3,0,0.4,0.1,0.6,0.2c0.1,0.2,0.2,0.3,0.2,0.6v23c0,0.2-0.1,0.4-0.2,0.6c-0.1,0.2-0.3,0.2-0.6,0.2
				H567.8z"/>
			<path class="st1" d="M581.2,335.6c-2.4,0-4.3-0.7-5.7-2.2c-1.4-1.5-2.2-3.5-2.3-6c0-0.3,0-0.7,0-1.2c0-0.5,0-0.9,0-1.2
				c0.1-1.6,0.5-3.1,1.1-4.3c0.7-1.2,1.6-2.2,2.7-2.9c1.2-0.7,2.5-1,4.1-1c1.8,0,3.2,0.4,4.4,1.1c1.2,0.7,2.1,1.8,2.7,3.1
				c0.6,1.4,0.9,3,0.9,4.8v0.6c0,0.3-0.1,0.4-0.2,0.6c-0.2,0.1-0.3,0.2-0.6,0.2h-12c0,0,0,0.1,0,0.1c0,0.1,0,0.1,0,0.2
				c0,0.9,0.3,1.8,0.6,2.6c0.4,0.8,0.9,1.5,1.6,2c0.7,0.5,1.5,0.8,2.5,0.8c0.8,0,1.5-0.1,2.1-0.4c0.6-0.3,1-0.5,1.3-0.8
				c0.3-0.3,0.6-0.5,0.7-0.7c0.2-0.3,0.4-0.5,0.5-0.5c0.1-0.1,0.3-0.1,0.6-0.1h1.7c0.2,0,0.4,0.1,0.6,0.2c0.1,0.1,0.2,0.3,0.2,0.5
				c0,0.3-0.2,0.8-0.6,1.3c-0.3,0.5-0.8,1-1.5,1.5c-0.6,0.5-1.4,0.9-2.4,1.2C583.4,335.4,582.4,335.6,581.2,335.6z M576.5,324.9h9.5
				v-0.1c0-1-0.2-2-0.6-2.8c-0.4-0.8-0.9-1.4-1.6-1.9c-0.7-0.5-1.6-0.7-2.6-0.7c-1,0-1.8,0.2-2.5,0.7c-0.7,0.5-1.2,1.1-1.6,1.9
				c-0.4,0.8-0.6,1.7-0.6,2.8V324.9z"/>
			<path class="st1" d="M598.6,335.6c-1.3,0-2.4-0.2-3.3-0.7c-0.9-0.4-1.7-1.1-2.3-1.8c-0.6-0.8-1-1.7-1.3-2.6c-0.3-1-0.5-2-0.5-3.1
				c0-0.4,0-0.7,0-1c0-0.3,0-0.7,0-1c0-1.1,0.2-2.1,0.5-3.1c0.3-1,0.7-1.9,1.3-2.7c0.6-0.8,1.3-1.4,2.3-1.8c0.9-0.4,2-0.7,3.3-0.7
				c1.4,0,2.5,0.2,3.4,0.7c0.9,0.5,1.6,1.1,2.2,1.8v-8c0-0.2,0.1-0.4,0.2-0.6c0.1-0.1,0.3-0.2,0.6-0.2h1.7c0.2,0,0.4,0.1,0.6,0.2
				c0.1,0.2,0.2,0.3,0.2,0.6v23c0,0.2-0.1,0.4-0.2,0.6c-0.2,0.2-0.3,0.2-0.6,0.2h-1.6c-0.3,0-0.4-0.1-0.6-0.2
				c-0.1-0.1-0.2-0.3-0.2-0.6V333c-0.6,0.7-1.3,1.4-2.2,1.8C601.1,335.3,599.9,335.6,598.6,335.6z M599.3,332.8
				c1.2,0,2.1-0.3,2.8-0.8c0.7-0.5,1.2-1.2,1.6-2c0.3-0.8,0.5-1.7,0.6-2.5c0-0.4,0-0.8,0-1.3c0-0.5,0-1,0-1.3c0-0.8-0.2-1.6-0.6-2.4
				c-0.4-0.8-0.9-1.4-1.6-1.9c-0.7-0.5-1.6-0.8-2.7-0.8c-1.2,0-2.1,0.3-2.8,0.8c-0.7,0.5-1.2,1.2-1.5,2c-0.3,0.8-0.5,1.7-0.5,2.7
				c0,0.7,0,1.3,0,2c0,1,0.2,1.9,0.5,2.7c0.3,0.8,0.8,1.5,1.5,2C597.2,332.5,598.1,332.8,599.3,332.8z"/>
			<path class="st1" d="M618.5,342.9c-1.6,0-2.9-0.2-3.9-0.6c-1-0.4-1.8-0.9-2.4-1.5c-0.6-0.6-1-1.2-1.2-1.8
				c-0.2-0.6-0.4-1.1-0.4-1.4c0-0.2,0.1-0.4,0.2-0.6c0.2-0.2,0.4-0.2,0.6-0.2h1.7c0.2,0,0.4,0,0.5,0.1c0.1,0.1,0.3,0.3,0.3,0.6
				c0.1,0.3,0.3,0.7,0.6,1.2c0.3,0.4,0.7,0.8,1.3,1.1c0.6,0.3,1.4,0.5,2.4,0.5c1.1,0,2-0.1,2.7-0.4c0.7-0.3,1.3-0.8,1.7-1.5
				c0.4-0.7,0.6-1.7,0.6-3v-2.4c-0.6,0.7-1.3,1.3-2.2,1.8c-0.9,0.5-2,0.7-3.4,0.7c-1.3,0-2.4-0.2-3.3-0.7c-0.9-0.4-1.7-1.1-2.3-1.8
				c-0.6-0.8-1-1.7-1.3-2.6c-0.3-1-0.5-2-0.5-3.1c0-0.6,0-1.3,0-1.9c0-1.1,0.2-2.1,0.5-3.1c0.3-1,0.7-1.9,1.3-2.7
				c0.6-0.8,1.3-1.4,2.3-1.8c0.9-0.4,2-0.7,3.3-0.7c1.4,0,2.5,0.3,3.4,0.8c0.9,0.5,1.7,1.1,2.2,1.9v-1.5c0-0.2,0.1-0.4,0.2-0.6
				c0.1-0.2,0.3-0.2,0.6-0.2h1.6c0.2,0,0.4,0.1,0.6,0.2c0.2,0.2,0.2,0.4,0.2,0.6v16.8c0,1.5-0.3,2.9-0.8,4.1
				c-0.5,1.2-1.4,2.1-2.6,2.8C622.1,342.5,620.5,342.9,618.5,342.9z M618.5,332.6c1.2,0,2.1-0.3,2.8-0.8c0.7-0.5,1.2-1.2,1.6-2
				c0.3-0.8,0.5-1.6,0.5-2.5c0-0.3,0-0.7,0-1.2c0-0.5,0-0.9,0-1.2c0-0.8-0.2-1.6-0.5-2.5c-0.3-0.8-0.9-1.5-1.6-2
				c-0.7-0.5-1.6-0.8-2.8-0.8c-1.2,0-2.1,0.3-2.8,0.8c-0.7,0.5-1.2,1.2-1.5,2c-0.3,0.8-0.5,1.7-0.5,2.7c0,0.6,0,1.2,0,1.8
				c0,1,0.2,1.9,0.5,2.7c0.3,0.8,0.8,1.5,1.5,2C616.4,332.4,617.3,332.6,618.5,332.6z"/>
			<path class="st1" d="M637.6,335.6c-2.4,0-4.3-0.7-5.7-2.2c-1.4-1.5-2.2-3.5-2.3-6c0-0.3,0-0.7,0-1.2c0-0.5,0-0.9,0-1.2
				c0.1-1.6,0.5-3.1,1.1-4.3c0.7-1.2,1.6-2.2,2.7-2.9c1.2-0.7,2.5-1,4.1-1c1.8,0,3.2,0.4,4.4,1.1c1.2,0.7,2.1,1.8,2.7,3.1
				c0.6,1.4,0.9,3,0.9,4.8v0.6c0,0.3-0.1,0.4-0.2,0.6c-0.2,0.1-0.3,0.2-0.6,0.2h-12c0,0,0,0.1,0,0.1c0,0.1,0,0.1,0,0.2
				c0,0.9,0.3,1.8,0.6,2.6c0.4,0.8,0.9,1.5,1.6,2c0.7,0.5,1.5,0.8,2.5,0.8c0.8,0,1.5-0.1,2.1-0.4c0.6-0.3,1-0.5,1.3-0.8
				c0.3-0.3,0.6-0.5,0.7-0.7c0.2-0.3,0.4-0.5,0.5-0.5c0.1-0.1,0.3-0.1,0.6-0.1h1.7c0.2,0,0.4,0.1,0.6,0.2c0.1,0.1,0.2,0.3,0.2,0.5
				c0,0.3-0.2,0.8-0.6,1.3c-0.3,0.5-0.8,1-1.5,1.5c-0.6,0.5-1.4,0.9-2.4,1.2C639.8,335.4,638.8,335.6,637.6,335.6z M632.9,324.9h9.5
				v-0.1c0-1-0.2-2-0.6-2.8c-0.4-0.8-0.9-1.4-1.6-1.9c-0.7-0.5-1.6-0.7-2.6-0.7c-1,0-1.8,0.2-2.5,0.7c-0.7,0.5-1.2,1.1-1.6,1.9
				c-0.4,0.8-0.6,1.7-0.6,2.8V324.9z"/>
			<path class="st1" d="M661.2,335.2c-0.2,0-0.4-0.1-0.6-0.2c-0.2-0.1-0.2-0.3-0.2-0.6v-20.3h-6.6c-0.2,0-0.4-0.1-0.6-0.2
				c-0.2-0.1-0.2-0.3-0.2-0.6v-1.5c0-0.3,0.1-0.5,0.2-0.6c0.1-0.1,0.3-0.2,0.6-0.2h16.7c0.3,0,0.5,0.1,0.6,0.2
				c0.1,0.2,0.2,0.4,0.2,0.6v1.5c0,0.2-0.1,0.4-0.2,0.6c-0.2,0.2-0.4,0.2-0.6,0.2h-6.6v20.3c0,0.2-0.1,0.4-0.2,0.6
				c-0.2,0.2-0.4,0.2-0.6,0.2H661.2z"/>
			<path class="st1" d="M677.3,335.6c-1.8,0-3.2-0.3-4.4-1c-1.2-0.7-2.1-1.6-2.7-2.8c-0.6-1.2-1-2.5-1-4.1c0-0.4,0-0.9,0-1.5
				c0-0.6,0-1.1,0-1.5c0.1-1.5,0.4-2.9,1.1-4.1c0.6-1.2,1.5-2.1,2.7-2.8c1.2-0.7,2.6-1,4.4-1c1.7,0,3.2,0.3,4.4,1
				c1.2,0.7,2.1,1.6,2.7,2.8c0.6,1.2,1,2.5,1.1,4.1c0,0.4,0,0.9,0,1.5c0,0.6,0,1.1,0,1.5c-0.1,1.5-0.4,2.9-1,4.1
				c-0.6,1.2-1.5,2.1-2.7,2.8C680.5,335.3,679.1,335.6,677.3,335.6z M677.3,332.9c1.4,0,2.6-0.5,3.4-1.4c0.9-0.9,1.3-2.2,1.4-4
				c0-0.3,0-0.8,0-1.3c0-0.5,0-1,0-1.3c-0.1-1.8-0.5-3.1-1.4-4c-0.9-0.9-2-1.4-3.4-1.4c-1.4,0-2.6,0.5-3.4,1.4
				c-0.9,0.9-1.3,2.2-1.4,4c0,0.3,0,0.8,0,1.3c0,0.5,0,1,0,1.3c0,1.8,0.5,3.1,1.4,4C674.7,332.5,675.9,332.9,677.3,332.9z"/>
			<path class="st1" d="M703.7,335.6c-2,0-3.7-0.3-5-0.9c-1.4-0.6-2.4-1.4-3.1-2.4c-0.7-1-1.1-2-1.2-3.1c0-0.2,0.1-0.4,0.2-0.5
				c0.1-0.1,0.3-0.2,0.5-0.2h1.8c0.3,0,0.5,0.1,0.6,0.2c0.1,0.1,0.2,0.3,0.3,0.5c0.1,0.6,0.4,1.1,0.8,1.6c0.4,0.5,1.1,1,1.9,1.3
				c0.8,0.4,1.9,0.5,3.2,0.5c2,0,3.4-0.4,4.4-1.1c0.9-0.7,1.4-1.6,1.4-2.8c0-0.8-0.2-1.5-0.7-2c-0.5-0.5-1.3-0.9-2.3-1.3
				c-1-0.4-2.3-0.8-3.9-1.3c-1.7-0.5-3.1-1-4.2-1.6c-1.1-0.6-1.9-1.3-2.5-2.1c-0.5-0.9-0.8-1.9-0.8-3.2c0-1.2,0.3-2.4,1-3.3
				c0.7-1,1.6-1.8,2.9-2.3c1.3-0.6,2.8-0.9,4.6-0.9c1.4,0,2.7,0.2,3.8,0.6c1.1,0.4,2,0.9,2.7,1.5c0.7,0.6,1.3,1.3,1.6,2
				c0.4,0.7,0.6,1.4,0.6,2.1c0,0.2-0.1,0.3-0.2,0.5c-0.1,0.2-0.3,0.2-0.6,0.2h-1.8c-0.2,0-0.3,0-0.5-0.1c-0.2-0.1-0.3-0.3-0.4-0.5
				c-0.1-0.9-0.7-1.7-1.6-2.4c-0.9-0.6-2.1-1-3.6-1c-1.5,0-2.7,0.3-3.6,0.9c-0.9,0.6-1.4,1.5-1.4,2.7c0,0.8,0.2,1.4,0.7,2
				c0.4,0.5,1.1,1,2.1,1.4c0.9,0.4,2.2,0.8,3.7,1.2c1.8,0.5,3.4,1,4.5,1.6c1.2,0.6,2,1.3,2.6,2.1c0.6,0.8,0.8,1.9,0.8,3.2
				c0,1.5-0.4,2.7-1.1,3.7c-0.8,1-1.8,1.8-3.2,2.4C707.2,335.3,705.6,335.6,703.7,335.6z"/>
			<path class="st1" d="M722.6,335.2c-1.3,0-2.3-0.2-3.1-0.7c-0.8-0.5-1.4-1.2-1.8-2.1c-0.4-0.9-0.6-2-0.6-3.2V320h-2.7
				c-0.2,0-0.4-0.1-0.6-0.2c-0.2-0.1-0.2-0.3-0.2-0.6v-1.2c0-0.2,0.1-0.4,0.2-0.6c0.1-0.1,0.3-0.2,0.6-0.2h2.7v-5.8
				c0-0.2,0.1-0.4,0.2-0.6c0.1-0.1,0.3-0.2,0.6-0.2h1.6c0.2,0,0.4,0.1,0.6,0.2c0.1,0.2,0.2,0.3,0.2,0.6v5.8h4.3
				c0.2,0,0.4,0.1,0.6,0.2c0.1,0.2,0.2,0.3,0.2,0.6v1.2c0,0.2-0.1,0.4-0.2,0.6c-0.2,0.2-0.3,0.2-0.6,0.2h-4.3v8.9
				c0,1.1,0.2,1.9,0.6,2.6c0.4,0.6,1,0.9,2,0.9h2.1c0.2,0,0.4,0.1,0.6,0.2c0.1,0.2,0.2,0.3,0.2,0.6v1.2c0,0.2-0.1,0.4-0.2,0.6
				c-0.2,0.2-0.3,0.2-0.6,0.2H722.6z"/>
			<path class="st1" d="M734.4,335.6c-1.5,0-2.7-0.3-3.8-1c-1-0.7-1.8-1.6-2.3-2.7c-0.5-1.2-0.8-2.5-0.8-4v-9.7
				c0-0.2,0.1-0.4,0.2-0.6c0.1-0.1,0.3-0.2,0.6-0.2h1.7c0.2,0,0.4,0.1,0.6,0.2c0.1,0.2,0.2,0.3,0.2,0.6v9.6c0,3.4,1.5,5.2,4.5,5.2
				c1.4,0,2.6-0.5,3.4-1.4c0.9-0.9,1.3-2.2,1.3-3.8v-9.6c0-0.2,0.1-0.4,0.2-0.6c0.1-0.1,0.3-0.2,0.6-0.2h1.7c0.3,0,0.4,0.1,0.6,0.2
				c0.1,0.2,0.2,0.3,0.2,0.6v16.4c0,0.2-0.1,0.4-0.2,0.6c-0.1,0.2-0.3,0.2-0.6,0.2H741c-0.2,0-0.4-0.1-0.6-0.2
				c-0.2-0.1-0.2-0.3-0.2-0.6v-1.5c-0.6,0.8-1.4,1.5-2.3,1.9C737.1,335.4,735.9,335.6,734.4,335.6z"/>
			<path class="st1" d="M753.7,335.6c-1.3,0-2.4-0.2-3.3-0.7c-0.9-0.4-1.7-1.1-2.3-1.8c-0.6-0.8-1-1.7-1.3-2.6c-0.3-1-0.5-2-0.5-3.1
				c0-0.4,0-0.7,0-1c0-0.3,0-0.7,0-1c0-1.1,0.2-2.1,0.5-3.1c0.3-1,0.7-1.9,1.3-2.7c0.6-0.8,1.3-1.4,2.3-1.8c0.9-0.4,2-0.7,3.3-0.7
				c1.4,0,2.5,0.2,3.4,0.7c0.9,0.5,1.6,1.1,2.2,1.8v-8c0-0.2,0.1-0.4,0.2-0.6c0.1-0.1,0.3-0.2,0.6-0.2h1.7c0.2,0,0.4,0.1,0.6,0.2
				c0.1,0.2,0.2,0.3,0.2,0.6v23c0,0.2-0.1,0.4-0.2,0.6c-0.2,0.2-0.3,0.2-0.6,0.2h-1.6c-0.3,0-0.4-0.1-0.6-0.2
				c-0.1-0.1-0.2-0.3-0.2-0.6V333c-0.6,0.7-1.3,1.4-2.2,1.8C756.3,335.3,755.1,335.6,753.7,335.6z M754.5,332.8
				c1.2,0,2.1-0.3,2.8-0.8c0.7-0.5,1.2-1.2,1.6-2c0.3-0.8,0.5-1.7,0.6-2.5c0-0.4,0-0.8,0-1.3c0-0.5,0-1,0-1.3c0-0.8-0.2-1.6-0.6-2.4
				c-0.4-0.8-0.9-1.4-1.6-1.9c-0.7-0.5-1.6-0.8-2.7-0.8c-1.2,0-2.1,0.3-2.8,0.8c-0.7,0.5-1.2,1.2-1.5,2c-0.3,0.8-0.5,1.7-0.5,2.7
				c0,0.7,0,1.3,0,2c0,1,0.2,1.9,0.5,2.7c0.3,0.8,0.8,1.5,1.5,2C752.4,332.5,753.3,332.8,754.5,332.8z"/>
			<path class="st1" d="M773.5,335.6c-2.4,0-4.3-0.7-5.7-2.2c-1.4-1.5-2.2-3.5-2.3-6c0-0.3,0-0.7,0-1.2c0-0.5,0-0.9,0-1.2
				c0.1-1.6,0.5-3.1,1.1-4.3c0.7-1.2,1.6-2.2,2.7-2.9c1.2-0.7,2.5-1,4.1-1c1.8,0,3.2,0.4,4.4,1.1c1.2,0.7,2.1,1.8,2.7,3.1
				c0.6,1.4,0.9,3,0.9,4.8v0.6c0,0.3-0.1,0.4-0.2,0.6c-0.2,0.1-0.3,0.2-0.6,0.2h-12c0,0,0,0.1,0,0.1c0,0.1,0,0.1,0,0.2
				c0,0.9,0.3,1.8,0.6,2.6c0.4,0.8,0.9,1.5,1.6,2c0.7,0.5,1.5,0.8,2.5,0.8c0.8,0,1.5-0.1,2.1-0.4c0.6-0.3,1-0.5,1.3-0.8
				c0.3-0.3,0.6-0.5,0.7-0.7c0.2-0.3,0.4-0.5,0.5-0.5c0.1-0.1,0.3-0.1,0.6-0.1h1.7c0.2,0,0.4,0.1,0.6,0.2c0.1,0.1,0.2,0.3,0.2,0.5
				c0,0.3-0.2,0.8-0.6,1.3c-0.3,0.5-0.8,1-1.5,1.5c-0.6,0.5-1.4,0.9-2.4,1.2C775.8,335.4,774.7,335.6,773.5,335.6z M768.8,324.9h9.5
				v-0.1c0-1-0.2-2-0.6-2.8c-0.4-0.8-0.9-1.4-1.6-1.9c-0.7-0.5-1.6-0.7-2.6-0.7c-1,0-1.8,0.2-2.5,0.7c-0.7,0.5-1.2,1.1-1.6,1.9
				c-0.4,0.8-0.6,1.7-0.6,2.8V324.9z"/>
			<path class="st1" d="M785.1,335.2c-0.2,0-0.4-0.1-0.6-0.2c-0.2-0.1-0.2-0.3-0.2-0.6v-16.4c0-0.2,0.1-0.4,0.2-0.6
				c0.1-0.1,0.3-0.2,0.6-0.2h1.6c0.2,0,0.4,0.1,0.6,0.2c0.1,0.2,0.2,0.3,0.2,0.6v1.5c0.6-0.8,1.4-1.4,2.3-1.9
				c0.9-0.5,2.1-0.7,3.5-0.7c1.5,0,2.8,0.3,3.8,1c1,0.7,1.8,1.6,2.4,2.7c0.5,1.2,0.8,2.5,0.8,4.1v9.7c0,0.2-0.1,0.4-0.2,0.6
				c-0.1,0.2-0.3,0.2-0.6,0.2h-1.7c-0.2,0-0.4-0.1-0.6-0.2c-0.2-0.1-0.2-0.3-0.2-0.6v-9.6c0-1.6-0.4-2.9-1.2-3.8
				c-0.8-0.9-1.9-1.4-3.5-1.4c-1.4,0-2.6,0.5-3.4,1.4c-0.9,0.9-1.3,2.2-1.3,3.8v9.6c0,0.2-0.1,0.4-0.2,0.6c-0.2,0.2-0.3,0.2-0.6,0.2
				H785.1z"/>
			<path class="st1" d="M810.7,335.2c-1.3,0-2.3-0.2-3.1-0.7c-0.8-0.5-1.4-1.2-1.8-2.1c-0.4-0.9-0.6-2-0.6-3.2V320h-2.7
				c-0.2,0-0.4-0.1-0.6-0.2c-0.2-0.1-0.2-0.3-0.2-0.6v-1.2c0-0.2,0.1-0.4,0.2-0.6c0.1-0.1,0.3-0.2,0.6-0.2h2.7v-5.8
				c0-0.2,0.1-0.4,0.2-0.6c0.1-0.1,0.3-0.2,0.6-0.2h1.6c0.2,0,0.4,0.1,0.6,0.2c0.1,0.2,0.2,0.3,0.2,0.6v5.8h4.3
				c0.2,0,0.4,0.1,0.6,0.2c0.1,0.2,0.2,0.3,0.2,0.6v1.2c0,0.2-0.1,0.4-0.2,0.6c-0.2,0.2-0.3,0.2-0.6,0.2h-4.3v8.9
				c0,1.1,0.2,1.9,0.6,2.6c0.4,0.6,1,0.9,2,0.9h2.1c0.2,0,0.4,0.1,0.6,0.2c0.1,0.2,0.2,0.3,0.2,0.6v1.2c0,0.2-0.1,0.4-0.2,0.6
				c-0.2,0.2-0.3,0.2-0.6,0.2H810.7z"/>
			<path class="st1" d="M822,335.6c-1.3,0-2.4-0.2-3.3-0.5c-0.9-0.3-1.7-0.7-2.2-1.2c-0.6-0.5-1-0.9-1.3-1.4
				c-0.3-0.5-0.4-0.8-0.5-1.1c0-0.3,0.1-0.4,0.2-0.6c0.2-0.1,0.4-0.2,0.6-0.2h1.5c0.1,0,0.2,0,0.3,0.1c0.1,0,0.2,0.1,0.3,0.3
				c0.3,0.3,0.6,0.6,1,1c0.4,0.3,0.8,0.6,1.4,0.8c0.5,0.2,1.2,0.3,2,0.3c1.2,0,2.1-0.2,2.9-0.7c0.8-0.4,1.1-1.1,1.1-2
				c0-0.6-0.2-1-0.5-1.4c-0.3-0.3-0.9-0.7-1.7-0.9c-0.8-0.3-1.9-0.6-3.3-0.9c-1.4-0.3-2.5-0.7-3.3-1.2c-0.8-0.5-1.4-1-1.7-1.7
				c-0.3-0.7-0.5-1.4-0.5-2.2c0-0.9,0.3-1.7,0.8-2.5c0.5-0.8,1.2-1.4,2.2-2c1-0.5,2.2-0.8,3.7-0.8c1.2,0,2.2,0.2,3.1,0.4
				c0.9,0.3,1.6,0.7,2.1,1.1c0.6,0.4,1,0.9,1.2,1.3c0.3,0.4,0.4,0.8,0.4,1.1c0,0.2,0,0.4-0.2,0.6c-0.2,0.2-0.3,0.2-0.6,0.2h-1.5
				c-0.2,0-0.3,0-0.4-0.1c-0.1-0.1-0.2-0.1-0.3-0.2c-0.2-0.3-0.5-0.6-0.8-0.9c-0.3-0.3-0.7-0.5-1.2-0.7c-0.5-0.2-1.1-0.3-2-0.3
				c-1.2,0-2,0.2-2.6,0.7c-0.6,0.5-0.9,1.1-0.9,1.8c0,0.4,0.1,0.8,0.4,1.2c0.3,0.3,0.7,0.7,1.5,0.9c0.7,0.3,1.8,0.6,3.2,0.9
				c1.5,0.3,2.7,0.7,3.6,1.2c0.9,0.5,1.5,1.1,1.9,1.8c0.4,0.7,0.6,1.4,0.6,2.3c0,1-0.3,1.9-0.8,2.7c-0.6,0.8-1.4,1.4-2.5,1.9
				C825,335.4,823.6,335.6,822,335.6z"/>
		</g>
		<g>
			<g>
				<path id="XMLID_00000005969936783201810850000015359477907788195500_" class="st2" d="M864.8,307.9
					c8.8-32.3,26.1-36.5,33.3-47.5c10.4-15.9,7.3-30,7.3-30c-3.2,25-20.2,28.8-35.9,49.2c-3.8,5-6.5,11.6-8.3,19
					c-1.8-7.4-4.4-14-8.3-19c-15.7-20.4-32.7-24.3-35.9-49.2c0,0-3.1,14.1,7.3,30c7.2,11,24.5,15.4,33.3,47.5"/>
				<path id="XMLID_00000018942942775818050620000007530633581520204201_" class="st2" d="M900.7,226.5c-2.8,22.3-18.1,25.8-32.1,44
					c-3.4,4.4-5.8,10.3-7.4,16.9c-1.6-6.6-4-12.5-7.4-16.9c-14-18.2-29.2-21.7-32.1-44c0,0-2.7,12.6,6.5,26.8
					c8.8,13.5,28.8,15.5,32.9,85.9c4.2-70.4,24.1-72.5,32.9-85.9C903.4,239.1,900.7,226.5,900.7,226.5z"/>
				<path id="XMLID_00000008833295680413597170000013923476647950764986_" class="st2" d="M841.3,229.3c-0.3,0.2-0.6,0.6-0.6,1
					c0,0.5,0.3,1,0.8,1.2l-1.7,4.7h2.1h2.1l-1.7-4.7c0.5-0.2,0.8-0.6,0.8-1.2c0-0.4-0.2-0.8-0.6-1v-6.1l8-3.2l-6.7,3.8l5.7,2.5v3.5
					c-1.8,2.5-2.9,5.6-2.9,9c0,8.4,6.8,15.3,15.3,15.3s15.3-6.8,15.3-15.3c0-3.4-1.1-6.5-3-9.1v-3.4l13.4-6.3l-25.1-12.3l-27.5,12.2
					l6.4,2.8V229.3z"/>
			</g>
			<path id="XMLID_00000139277840602178002520000014871175853863967623_" class="st3" d="M165.2,324.5
				c-19.3-44.2-77.6-39.4-77.6-39.4l34.4-128c48.6,5.9,60.6,33.5,65.7,46.7c-7.1-13.9-20.2-24.2-51.2-30.5l-27.1,100.6
				C109.5,273.9,160.5,284.4,165.2,324.5z"/>
			<g>
				<g>
					<g id="XMLID_00000182512074360138196740000013884641357009207689_">
						<path class="st2" d="M116.2,162.6l-2.6,9.5l-5.4-1.3L74.2,297.5c0,0,68-2.8,88.3,36.3c0,0-15.2-24.5-107.6-26l40.4-150.2
							L116.2,162.6z"/>
					</g>
				</g>
			</g>
			<g>
				<g>
					<path class="st3" d="M169.9,290.9v-61.6c0-1.2-0.6-1.8-1.8-1.8H152c-1.6,0-2.8-1.8-2.8-8.1c0-6.1,1.2-7.6,2.8-7.6h54
						c1.5,0,2.8,1.5,2.8,7.6c0,6.2-1.3,8.1-2.8,8.1h-16.1c-1.2,0-1.8,0.6-1.8,1.8v61.6c0,1.5-1.6,2.8-9,2.8
						C171.4,293.7,169.9,292.3,169.9,290.9z"/>
					<path class="st3" d="M202.3,264.1c0-24.1,15.8-34,31.4-34c16.6,0,24.8,7.8,24.8,18c0,16.4-21.3,23-35.8,23.3
						c2.7,7.5,9.5,9.8,16.5,9.8c9.4,0,14.7-5.5,16.6-5.5c0.9,0,1.7,0.5,1.7,1.7c0,2-0.9,6.4-2.3,10c-1,2.6-8.7,7.5-19.3,7.5
						C216.6,294.9,202.3,284.9,202.3,264.1z M221.6,262.2c9.8-1,18.7-6.2,18.7-15.2c0-3.4-2.7-5.9-6-5.9
						C228.2,241.1,222.1,246.8,221.6,262.2z"/>
					<path class="st3" d="M264.8,290.8v-82.1c0-1.6,1.6-2.9,9-2.9c7.3,0,9,1.3,9,2.9v45c8.1-2.7,15.5-11.6,19.3-20
						c0.6-1.3,1.1-2.2,2.6-2.2h12.3c1.3,0,2.1,0.6,2.1,1.7c0,0.9-0.4,2-1.1,3.5c-3.5,7.5-10.1,17.7-18,23.1
						c4.8,2.7,8.1,8.1,13.6,17.8c2.2,3.9,3.8,4.9,7.2,4.9h2.6c1,0,1.6,0.5,1.6,1.6c0,2.7-8.1,10.9-13.9,10.9c-4.8,0-7.9-2.1-10-5.6
						c-7.8-13.7-11.4-20.2-13.9-21.3c-1,0.2-4.2,1.3-4.3,1.5v21.3c0,1.5-1.7,2.9-9,2.9C266.3,293.7,264.8,292.2,264.8,290.8z"/>
					<path class="st3" d="M325.5,284.2c0-2.7,6.2-9.8,8.3-9.8c2.3,0,8.9,7.9,17.8,7.9c4.4,0,6.6-2.3,6.6-5.9c0-4.6-6.2-6.4-13.1-8.8
						c-8.3-3.1-17.5-7.1-17.5-17.4c0-12.2,10.6-20.2,26-20.2c13.7,0,20.3,5.6,20.3,8.4c0,2.7-5.9,9.8-8.3,9.8
						c-1.7,0-6.1-6.4-13.6-6.4c-4,0-6.7,2.4-6.7,5.7c0,4.3,4.8,5.9,10.5,7.8c8.9,2.9,20.3,6.4,20.3,18.7s-10.5,20.7-25.1,20.7
						C336.7,294.9,325.5,286.7,325.5,284.2z"/>
				</g>
			</g>
			<g>
				<g>
					<path class="st2" d="M439.7,288.7c-4.5,3.2-10.5,6.2-18.7,6.2c-11.7,0-20.4-6.5-20.4-18c0-14.2,9.7-19.2,27.4-23.3
						c5.9-1.3,8.8-2.4,8.8-4.3c0-3.5-3.2-6-10-6c-9.5,0-17.1,5.6-19.1,5.6c-1.1,0-1.6-0.6-1.6-1.8c0-2,0.9-6.1,2.6-10.1
						c1.2-2.7,10-6.8,20.7-6.8c18.7,0,25.8,8.2,25.8,24.6v22.2c0,3.8,1.8,5.3,4.8,5.3h2.4c1.2,0,1.7,0.6,1.7,1.6
						c0,2.9-6.7,11.1-12.6,11.1C444.2,294.9,439.7,288.7,439.7,288.7z M427.8,282.6c5.4,0,9.2-3.3,9.2-5.6v-13.1
						c0-0.7-0.4-1.3-1.3-1.3c-1.6,0-4,0.6-6.7,1.8c-5.1,1.8-10.8,4.6-10.8,10.3C418.2,279.9,422.2,282.6,427.8,282.6z"/>
					<path class="st2" d="M464.2,264c0-22.9,15.6-33.9,33.9-33.9c12.2,0,18.5,4.3,18.5,6.8c0,2.8-5.3,10.5-7.7,10.5
						c-1.7,0-5-3.9-11.9-3.9c-5.9,0-13.2,4.4-13.2,18.9c0,13.1,7.3,18.7,17,18.7c9.8,0,14.7-5.1,16.7-5.1c0.7,0,1.6,0.5,1.6,1.7
						c0,2.3-0.9,6.5-2.6,10c-1.3,2.7-9.3,7.1-19.1,7.1C480,294.9,464.2,285.7,464.2,264z"/>
					<path class="st2" d="M561.3,288.7c-4.5,3.2-10.5,6.2-18.7,6.2c-11.7,0-20.4-6.5-20.4-18c0-14.2,9.7-19.2,27.4-23.3
						c5.9-1.3,8.8-2.4,8.8-4.3c0-3.5-3.2-6-10-6c-9.5,0-17.1,5.6-19.1,5.6c-1.1,0-1.6-0.6-1.6-1.8c0-2,0.9-6.1,2.6-10.1
						c1.2-2.7,10-6.8,20.7-6.8c18.7,0,25.8,8.2,25.8,24.6v22.2c0,3.8,1.8,5.3,4.8,5.3h2.4c1.2,0,1.7,0.6,1.7,1.6
						c0,2.9-6.7,11.1-12.6,11.1C565.8,294.9,561.3,288.7,561.3,288.7z M549.4,282.6c5.4,0,9.2-3.3,9.2-5.6v-13.1
						c0-0.7-0.4-1.3-1.3-1.3c-1.6,0-4,0.6-6.7,1.8c-5.1,1.8-10.8,4.6-10.8,10.3C539.7,279.9,543.8,282.6,549.4,282.6z"/>
					<path class="st2" d="M585.8,266.2c0-28.1,19.7-36.1,31-36.1c5.7,0,10.1,2.2,10.1,2.2v-23.7c0-1.6,1.6-2.9,9-2.9
						c7.3,0,9,1.3,9,2.9v68.3c0,3.8,1.8,5.3,4.6,5.3h2.4c1.3,0,1.8,0.6,1.8,1.6c0,2.9-7,11.1-12.7,11.1c-7.3,0-11.9-6.2-11.9-6.2
						s-6.5,6.2-17.1,6.2C599.3,294.9,585.8,286.2,585.8,266.2z M626.9,247.2c0-2.3-2.7-4.6-6.6-4.6c-7,0-15,5.1-15,22.2
						c0,13.2,6.6,17.7,12.6,17.7c5.1,0,9-3.8,9-6.8V247.2z"/>
					<path class="st2" d="M654.2,264.1c0-24.1,15.8-34,31.4-34c16.6,0,24.8,7.8,24.8,18c0,16.4-21.3,23-35.8,23.3
						c2.7,7.5,9.5,9.8,16.5,9.8c9.4,0,14.7-5.5,16.6-5.5c0.9,0,1.7,0.5,1.7,1.7c0,2-0.9,6.4-2.3,10c-1,2.6-8.7,7.5-19.3,7.5
						C668.5,294.9,654.2,284.9,654.2,264.1z M673.6,262.2c9.8-1,18.7-6.2,18.7-15.2c0-3.4-2.7-5.9-6-5.9
						C680.2,241.1,674,246.8,673.6,262.2z"/>
					<path class="st2" d="M791.4,280.4v-29c0-4.9-2.9-7.5-7.6-7.5c-5.1,0-11,4.9-11,7.7v39.1c0,1.5-1.6,2.9-9,2.9
						c-7.3,0-9-1.5-9-2.9v-39.1c0-5.3-3.7-7.7-7.9-7.7c-5.1,0-10.6,4.3-10.6,7.8v39c0,1.5-1.6,2.9-9,2.9c-7.3,0-9-1.5-9-2.9V248
						c0-5.3-3.4-7.1-3.4-9c0-2.8,10.1-8.8,13.9-8.8c3.7,0,4.9,2.7,7.1,7.3c2.4-1.8,9-7.3,18.7-7.3c7.1,0,11.5,3.2,14.9,8.3
						c5.1-4.8,14.5-8.3,21.8-8.3c9.5,0,18.5,5.5,18.5,15.4v31.4c0,3.8,1.8,5.3,4.6,5.3h2.6c1.3,0,1.7,0.6,1.7,1.6
						c0,2.8-6.7,11.1-12.7,11.1C796.6,294.9,791.4,289.4,791.4,280.4z"/>
				</g>
			</g>
		</g>
	</g>
	<g>
		<circle id="Oval_00000142874676802862695150000003989874552125782449_" class="st4" cx="919.7" cy="185" r="25.5"/>
		<circle id="Oval_00000144331879317901910450000005881357899219800253_" class="st5" cx="919.7" cy="185" r="20.2"/>
		<path id="Shape_00000040548698983000192040000000555713703717885606_" class="st4" d="M931.3,196l-4.9-9.2c0.9-0.4,1.6-1,2.3-1.6
			c1.7-1.7,2.6-4.1,2.4-6.5c-0.4-4.4-4.1-7.8-8.6-7.7h-10.7c-0.5,0-0.9,0.4-0.9,0.9v24.6c0,0.5,0.4,0.9,0.9,0.9h4.4
			c0.5,0,0.9-0.4,0.9-0.9v-8.8h3.1l4.6,9.2c0.2,0.3,0.5,0.5,0.8,0.5h5c0.3,0,0.6-0.2,0.8-0.4C931.4,196.6,931.4,196.2,931.3,196
			L931.3,196z M922.7,182.3H917v-6.1h5.7c1.7,0,3.1,1.4,3.1,3.1C925.8,180.9,924.4,182.3,922.7,182.3z"/>
	</g>
</g>
</svg>
